<?xml version="1.0" standalone="no"?>
<!DOCTYPE svg PUBLIC "-//W3C//DTD SVG 20010904//EN"
 "http://www.w3.org/TR/2001/REC-SVG-20010904/DTD/svg10.dtd">
<svg version="1.0" xmlns="http://www.w3.org/2000/svg"
 width="512.000000pt" height="512.000000pt" viewBox="0 0 512.000000 512.000000"
 preserveAspectRatio="xMidYMid meet">
<metadata>
Created by potrace 1.16, written by Peter Selinger 2001-2019
</metadata>
<g transform="translate(0.000000,512.000000) scale(0.100000,-0.100000)"
fill="#000000" stroke="none">
<path d="M2031 4156 c10 -9 69 -36 69 -32 0 6 -55 36 -66 36 -4 0 -5 -2 -3 -4z"/>
<path d="M1994 4134 c-18 -14 -18 -15 4 -4 12 6 22 13 22 15 0 8 -5 6 -26 -11z"/>
<path d="M2130 4107 c0 -3 21 -17 47 -32 l46 -28 -36 -19 c-20 -10 -37 -21
-37 -23 0 -3 18 4 41 15 30 16 38 24 30 33 -11 14 -91 61 -91 54z"/>
<path d="M1874 4064 c-18 -14 -18 -15 4 -4 12 6 22 13 22 15 0 8 -5 6 -26 -11z"/>
<path d="M1824 4034 c-18 -14 -18 -15 4 -4 12 6 22 13 22 15 0 8 -5 6 -26 -11z"/>
<path d="M2108 3984 c-16 -8 -28 -17 -28 -20 0 -3 4 -3 10 1 5 3 11 -23 13
-62 l3 -68 2 69 c2 52 6 72 20 82 23 18 14 17 -20 -2z"/>
<path d="M1724 3974 c-18 -14 -18 -15 4 -4 12 6 22 13 22 15 0 8 -5 6 -26 -11z"/>
<path d="M1680 3945 c-10 -13 -12 -77 -6 -305 l6 -290 -40 0 c-35 0 -72 11
-89 26 -3 3 4 11 15 20 18 15 17 15 -6 1 -22 -13 -25 -21 -25 -78 0 -35 -3
-69 -8 -76 -4 -7 -1 -10 11 -6 20 5 106 -53 97 -66 -3 -5 3 -7 12 -5 10 3 46
-14 83 -39 l65 -43 6 -65 c3 -35 6 40 7 167 2 250 6 269 51 244 20 -10 21 -8
23 42 1 29 5 -62 9 -202 5 -216 5 -191 5 165 l-1 421 -26 -4 c-28 -4 -80 15
-147 54 -35 21 -41 28 -31 40 6 8 9 14 6 14 -2 0 -10 -7 -17 -15z"/>
<path d="M2038 3944 c-38 -20 -36 -28 2 -9 17 9 30 18 30 20 0 7 -1 6 -32 -11z"/>
<path d="M1974 3904 c-18 -14 -18 -15 4 -4 12 6 22 13 22 15 0 8 -5 6 -26 -11z"/>
<path d="M1924 3874 c-18 -14 -18 -15 4 -4 12 6 22 13 22 15 0 8 -5 6 -26 -11z"/>
<path d="M2230 3458 l0 -325 -36 -33 c-20 -18 -44 -51 -55 -74 l-19 -41 -2
355 -3 355 -2 -344 -3 -344 -27 -36 c-14 -20 -58 -66 -97 -103 l-71 -68 -5 93
-5 92 -6 -68 c-3 -44 -10 -72 -20 -78 -9 -6 -10 -12 -4 -16 6 -5 32 -23 58
-41 l47 -33 0 -64 c0 -54 -3 -66 -20 -75 -19 -10 -20 -21 -20 -195 l0 -185
-35 0 -36 0 3 229 c2 126 0 227 -4 225 -4 -3 -27 6 -51 20 -24 14 -47 23 -52
18 -4 -4 -4 -1 0 7 6 11 4 13 -8 8 -11 -4 -14 -2 -10 9 10 26 -5 15 -36 -28
l-31 -42 -2 50 c-1 56 -9 -11 -26 -241 -6 -75 -15 -131 -21 -133 -6 -2 -9 -8
-6 -13 4 -5 -1 -6 -9 -3 -14 5 -16 46 -16 329 l0 323 -88 60 c-49 34 -95 62
-103 64 -8 2 -17 10 -21 18 -4 8 -7 -37 -5 -102 l2 -116 -42 -23 c-25 -14 -43
-32 -45 -43 -3 -17 -19 -24 -98 -42 -170 -38 -268 -77 -262 -103 1 -6 -3 -11
-9 -11 -7 0 -9 -10 -7 -25 3 -14 2 -25 -3 -25 -4 0 -10 -13 -14 -28 -5 -24
-25 -37 -151 -100 -81 -40 -145 -75 -142 -77 8 -8 328 162 321 170 -4 6 -1 4
7 -4 11 -10 12 -15 2 -18 -6 -3 -10 -9 -7 -14 4 -5 -1 -6 -9 -3 -10 4 -13 0
-10 -13 4 -14 -15 -29 -91 -71 -53 -30 -94 -59 -92 -65 4 -13 97 -83 97 -73 0
3 -20 19 -45 36 -25 17 -45 35 -45 39 0 4 45 31 100 60 55 29 98 57 95 62 -3
5 2 6 11 2 12 -4 15 -3 10 5 -5 8 -1 10 10 5 13 -5 15 -3 9 7 -5 9 -4 11 4 6
9 -6 9 -11 0 -22 -14 -17 2 -19 20 -1 11 10 12 9 6 -2 -6 -11 -4 -13 11 -8 18
7 18 6 1 -7 -17 -13 -16 -15 13 -42 29 -28 41 -52 18 -38 -6 4 -8 3 -5 -3 7
-12 -85 -57 -104 -51 -13 4 57 51 78 51 11 0 29 27 18 27 -3 0 -30 -16 -62
-36 -50 -33 -54 -38 -40 -49 15 -10 28 -7 82 22 36 19 63 39 60 44 -3 5 0 6 8
3 11 -4 14 2 12 20 -2 15 1 24 5 21 5 -3 7 -12 3 -20 -3 -8 -1 -15 5 -15 5 0
25 -13 43 -30 19 -16 42 -32 52 -36 28 -9 20 -22 -33 -49 -27 -14 -50 -28 -50
-30 0 -3 27 8 60 25 40 20 58 35 54 43 -4 7 -3 8 2 4 5 -5 9 -14 9 -20 0 -7 8
-11 18 -11 9 1 15 -1 13 -5 -3 -4 22 -22 55 -40 32 -18 59 -30 59 -27 0 3 -18
15 -40 26 -22 11 -40 23 -40 26 0 4 26 3 58 -1 31 -5 65 -8 74 -9 9 0 15 -4
12 -8 -2 -4 3 -11 11 -16 13 -6 5 -14 -35 -36 -53 -29 -71 -47 -20 -21 17 9
36 13 42 9 7 -4 8 -3 4 4 -3 6 3 16 14 22 15 8 26 7 47 -5 28 -17 21 -10 -31
28 -16 12 -9 14 60 15 75 2 81 0 112 -29 29 -26 32 -32 20 -47 -9 -12 -5 -11
16 4 l28 21 93 -28 c91 -27 94 -27 137 -11 23 10 61 29 83 43 62 40 85 51 98
46 7 -3 50 16 96 40 46 25 81 41 77 35 -7 -12 22 -25 36 -15 7 4 8 1 3 -7 -6
-10 -4 -12 9 -7 10 4 15 3 11 -3 -3 -6 1 -13 9 -16 27 -10 18 -20 -54 -58 -38
-21 -70 -39 -70 -42 0 -3 34 13 76 35 41 23 80 41 85 41 12 0 79 -43 79 -51 0
-3 -18 -15 -40 -28 -22 -12 -40 -25 -40 -28 0 -3 26 10 58 27 31 18 54 29 50
25 -4 -5 11 -28 34 -53 46 -50 47 -43 -23 -95 -13 -10 -3 -7 23 7 41 23 46 24
41 7 -3 -11 2 -21 12 -25 21 -8 38 2 29 16 -4 6 -2 8 4 4 6 -3 37 10 69 29 32
19 62 35 67 35 20 0 197 -113 207 -131 7 -13 8 -60 3 -134 l-7 -115 -48 -31
c-27 -17 -49 -33 -49 -36 0 -5 13 2 68 39 27 18 42 37 43 51 1 18 2 19 6 4 4
-14 12 -18 33 -15 17 3 28 0 27 -6 -1 -6 6 -10 15 -10 10 1 16 -2 15 -7 -1 -5
18 -20 43 -34 25 -14 36 -19 25 -11 -65 49 -66 47 10 43 39 -2 77 -7 85 -11
13 -5 15 29 17 269 1 180 -2 275 -8 275 -6 0 -42 19 -80 43 -278 170 -273 167
-280 142 -4 -13 -11 -29 -15 -37 -5 -7 -14 -33 -21 -58 -10 -37 -11 -6 -6 180
3 132 9 230 15 238 8 9 7 11 -5 6 -9 -3 -50 15 -99 45 -116 69 -118 70 -118
31 0 -22 -8 -38 -23 -50 -13 -10 -35 -36 -50 -57 -25 -37 -27 -48 -37 -222 -5
-101 -12 -187 -15 -190 -11 -11 7 734 19 748 8 12 8 13 -2 7 -7 -4 -19 -2 -27
4 -8 6 -20 8 -26 4 -7 -4 -9 -3 -6 2 3 6 -15 23 -41 39 -26 16 -49 30 -51 32
-3 2 4 10 15 19 18 15 17 15 -6 1 -20 -12 -26 -24 -30 -68 l-5 -54 -7 55 c-4
30 -8 102 -8 159 0 87 3 106 18 118 12 10 8 10 -15 -2 -18 -8 -33 -18 -33 -21
0 -3 5 -2 10 1 6 4 10 -47 10 -144 0 -124 -3 -151 -14 -151 -8 0 -26 -14 -39
-31 -14 -18 -30 -29 -36 -25 -7 5 -11 109 -11 343 0 185 -2 338 -5 341 -3 3
-5 -141 -5 -320z m180 -250 c0 -5 4 -7 9 -3 5 3 13 0 17 -6 4 -8 3 -9 -4 -5
-7 4 -12 1 -12 -7 0 -7 22 -36 50 -63 l50 -49 0 -170 c0 -93 -3 -194 -7 -224
l-6 -53 -23 55 c-12 31 -25 71 -29 89 -4 18 -13 42 -21 53 -26 41 -45 144 -51
273 -5 120 -4 132 11 126 9 -3 16 -10 16 -16z m-187 -298 c35 -22 69 -51 77
-64 10 -19 10 -63 1 -223 -7 -109 -13 -204 -13 -210 -1 -7 -5 -13 -10 -13 -4
0 -9 30 -10 68 l-2 67 -5 -75 -6 -75 -55 -33 -55 -33 -3 226 c-1 147 -6 225
-13 225 -5 0 -38 18 -72 41 -68 44 -48 24 27 -28 l46 -33 0 -80 c0 -44 -4 -80
-8 -80 -16 0 -71 65 -77 92 -4 14 -16 36 -28 49 -15 16 -22 39 -25 78 l-4 56
74 42 c40 22 78 41 85 42 6 1 41 -17 76 -39z m492 0 c3 -5 1 -10 -4 -10 -6 0
-11 5 -11 10 0 6 2 10 4 10 3 0 8 -4 11 -10z m8 -19 c25 3 38 -1 32 -11 -4 -6
-3 -10 2 -9 20 3 34 -3 56 -25 14 -14 28 -22 31 -19 8 8 8 -73 -1 -269 -5
-140 -8 -158 -23 -158 -10 0 -29 9 -43 20 -14 11 -29 20 -34 20 -4 0 -21 14
-37 30 -16 17 -34 30 -39 30 -5 0 -7 75 -3 193 6 232 5 218 28 206 10 -5 24
-9 31 -8z m-1363 -21 c-6 -12 -16 -17 -26 -13 -14 5 -12 8 7 19 31 17 31 17
19 -6z m698 -285 l53 -36 -3 -112 -3 -112 -70 -42 c-38 -24 -73 -43 -77 -43
-14 0 -9 214 5 229 10 11 10 13 0 7 -10 -5 -13 9 -13 57 0 56 3 65 23 75 31
15 26 16 85 -23z m950 -127 c2 -4 8 -6 13 -2 5 3 12 -2 15 -10 3 -9 10 -13 15
-10 5 3 9 -2 9 -11 0 -12 5 -15 16 -11 12 4 15 2 11 -9 -4 -8 -2 -17 4 -20 5
-4 8 -3 7 2 -4 12 5 15 26 7 19 -7 19 -8 0 -16 -16 -6 -15 -7 6 -6 14 2 27 -2
28 -7 8 -23 27 -36 44 -32 10 3 27 -2 38 -11 19 -16 19 -25 11 -192 -4 -96 -9
-158 -9 -137 -2 29 -7 39 -24 46 -13 5 -34 21 -48 36 -14 15 -50 46 -80 68
-30 23 -81 68 -112 101 l-58 61 0 108 0 107 43 -26 c23 -15 44 -31 45 -36z
m-1933 35 c-2 -10 -4 -19 -4 -21 -1 -2 -6 0 -11 3 -8 5 -7 11 1 21 15 18 18
18 14 -3z m1344 -142 c9 -6 10 -11 2 -15 -6 -4 -11 -2 -11 4 0 6 -4 9 -9 5 -5
-3 -12 -1 -16 5 -8 12 15 13 34 1z m776 -1 c3 -5 1 -10 -4 -10 -6 0 -11 5 -11
10 0 6 2 10 4 10 3 0 8 -4 11 -10z"/>
<path d="M2265 2841 c-3 -5 -1 -12 4 -15 5 -3 11 1 15 9 6 16 -9 21 -19 6z"/>
<path d="M2218 2814 c-38 -20 -36 -28 2 -9 17 9 30 18 30 20 0 7 -1 6 -32 -11z"/>
<path d="M2034 2514 c-18 -14 -18 -15 4 -4 12 6 22 13 22 15 0 8 -5 6 -26 -11z"/>
<path d="M3020 3749 c-17 -13 -18 -17 -5 -10 33 17 51 31 40 31 -5 0 -21 -10
-35 -21z"/>
<path d="M3286 3675 c-14 -10 -24 -12 -40 -4 -19 9 -19 9 -4 -4 14 -11 15 -16
5 -27 -7 -7 2 -3 20 9 18 12 35 26 38 31 8 13 4 12 -19 -5z"/>
<path d="M3363 3653 c3 -5 37 -24 76 -42 60 -30 69 -37 59 -50 -10 -13 -10
-14 2 -3 24 21 29 14 33 -40 l3 -53 2 52 2 53 -91 45 c-50 26 -89 42 -86 38z"/>
<path d="M2870 3447 c0 -196 -1 -203 -20 -203 -24 0 -22 -8 -22 136 0 97 -1
106 -8 60 -4 -30 -8 -83 -9 -117 -1 -35 -5 -63 -11 -63 -5 0 -17 -22 -27 -50
-10 -27 -21 -50 -25 -50 -5 0 -8 72 -8 160 l0 160 39 19 c21 11 41 17 45 14 3
-4 6 1 6 10 0 8 3 24 6 34 5 17 5 17 -6 1 -17 -28 -99 -80 -113 -72 -9 5 -9 4
1 -7 8 -9 12 -50 11 -133 -1 -67 -3 -113 -6 -103 -2 9 -13 17 -24 17 -18 0
-19 8 -19 121 0 93 3 119 13 113 8 -5 9 -4 2 3 -16 16 -111 67 -97 52 7 -7 13
-45 14 -88 l2 -76 3 72 4 72 24 -11 c25 -11 25 -14 25 -131 0 -102 -2 -118
-15 -113 -8 3 -15 1 -15 -5 0 -6 -6 -7 -12 -4 -7 4 -4 0 6 -9 10 -8 22 -13 26
-11 4 2 8 -57 9 -133 1 -75 3 -138 5 -139 1 -2 24 13 51 31 55 40 43 43 183
-42 l81 -49 -4 -91 c-3 -51 -1 -92 4 -92 5 0 16 -11 25 -24 14 -23 14 -28 -7
-73 l-22 -48 -6 45 -6 45 -1 -45 c-1 -26 -8 -52 -14 -60 -15 -16 14 2 130 78
76 51 84 54 110 43 l27 -12 -25 25 c-14 15 -35 36 -47 49 -12 12 -33 52 -46
90 -13 37 -27 64 -30 60 -9 -8 -9 114 0 346 3 100 9 177 13 171 8 -14 80 -52
80 -43 0 3 10 -3 23 -14 12 -11 32 -24 45 -28 l23 -7 -5 -271 -4 -272 10 315
c8 263 12 317 25 325 38 25 45 35 16 20 -32 -15 -35 -14 -112 24 -43 22 -82
37 -86 33 -5 -4 -5 -1 -1 6 5 7 1 12 -10 12 -14 0 -14 3 -4 15 11 13 10 14 -4
9 -13 -5 -16 -22 -16 -93 0 -48 -3 -169 -7 -269 -5 -143 -9 -180 -19 -171 -8
7 -13 6 -16 -3 -3 -7 -4 57 -3 142 l3 155 -8 -135 c-4 -74 -8 -136 -9 -138 0
-2 -8 3 -16 10 -8 7 -37 31 -65 53 l-50 40 0 248 c0 194 3 248 13 245 6 -2 40
-19 74 -38 l62 -35 3 -115 4 -115 2 117 2 116 -80 46 c-43 25 -82 46 -85 46
-3 0 -5 -91 -5 -203z"/>
<path d="M3204 3614 c-18 -14 -18 -15 4 -4 12 6 22 13 22 15 0 8 -5 6 -26 -11z"/>
<path d="M2340 3616 c0 -3 9 -10 20 -16 11 -6 20 -8 20 -6 0 3 -9 10 -20 16
-11 6 -20 8 -20 6z"/>
<path d="M2836 3595 c4 -8 11 -15 16 -15 6 0 5 6 -2 15 -7 8 -14 15 -16 15 -2
0 -1 -7 2 -15z"/>
<path d="M2390 3586 c0 -3 9 -10 20 -16 11 -6 20 -8 20 -6 0 3 -9 10 -20 16
-11 6 -20 8 -20 6z"/>
<path d="M3124 3564 c-18 -14 -18 -15 4 -4 12 6 22 13 22 15 0 8 -5 6 -26 -11z"/>
<path d="M2451 3548 c22 -18 28 -231 7 -255 -11 -14 -11 -15 7 -6 19 10 20 19
17 132 -3 113 -5 122 -25 132 -19 9 -20 8 -6 -3z"/>
<path d="M2552 3433 c-1 -62 -2 -116 -3 -119 0 -4 13 -16 30 -26 l31 -20 -1
39 c0 34 -1 36 -10 14 -7 -19 -12 -21 -24 -11 -11 9 -15 41 -18 123 l-3 112
-2 -112z"/>
<path d="M3434 3524 c-18 -14 -18 -15 4 -4 12 6 22 13 22 15 0 8 -5 6 -26 -11z"/>
<path d="M2418 3504 c-38 -20 -36 -28 2 -9 17 9 30 18 30 20 0 7 -1 6 -32 -11z"/>
<path d="M3384 3494 c-18 -14 -18 -15 4 -4 12 6 22 13 22 15 0 8 -5 6 -26 -11z"/>
<path d="M1624 3434 c-18 -14 -18 -15 4 -4 12 6 22 13 22 15 0 8 -5 6 -26 -11z"/>
<path d="M3414 3255 c0 -99 2 -138 3 -87 2 51 2 132 0 180 -1 48 -3 6 -3 -93z"/>
<path d="M3344 3285 c0 -77 2 -107 3 -67 2 40 2 103 0 140 -2 37 -3 4 -3 -73z"/>
<path d="M3484 3255 c0 -60 1 -84 3 -52 2 32 2 81 0 110 -2 29 -3 3 -3 -58z"/>
<path d="M3520 3180 c0 -51 2 -91 4 -89 8 7 9 169 2 176 -3 3 -6 -36 -6 -87z"/>
<path d="M3550 3236 c0 -3 9 -10 20 -16 11 -6 20 -8 20 -6 0 3 -9 10 -20 16
-11 6 -20 8 -20 6z"/>
<path d="M1467 3205 c-20 -14 -37 -28 -37 -31 0 -2 18 8 40 22 35 23 47 34 37
34 -1 0 -19 -11 -40 -25z"/>
<path d="M2588 3184 c-38 -20 -36 -28 2 -9 17 9 30 18 30 20 0 7 -1 6 -32 -11z"/>
<path d="M3620 3196 c0 -3 9 -10 20 -16 11 -6 20 -8 20 -6 0 3 -9 10 -20 16
-11 6 -20 8 -20 6z"/>
<path d="M1594 3144 c-18 -14 -18 -15 4 -4 12 6 22 13 22 15 0 8 -5 6 -26 -11z"/>
<path d="M3751 3146 c2 -2 15 -9 29 -15 24 -11 24 -11 6 3 -16 13 -49 24 -35
12z"/>
<path d="M3334 2955 c0 -82 2 -115 3 -72 2 43 2 110 0 150 -1 40 -3 5 -3 -78z"/>
<path d="M3560 3089 c35 -14 36 -17 14 -35 -17 -13 -16 -14 12 0 24 12 34 12
45 3 11 -10 11 -9 0 6 -8 9 -16 15 -19 13 -2 -3 -14 1 -26 9 -11 8 -27 15 -36
14 -8 0 -4 -5 10 -10z"/>
<path d="M3850 3096 c0 -3 14 -12 30 -21 17 -9 30 -13 30 -11 0 3 -13 12 -30
21 -16 9 -30 13 -30 11z"/>
<path d="M3867 3049 c7 -7 15 -10 18 -7 3 3 -2 9 -12 12 -14 6 -15 5 -6 -5z"/>
<path d="M1678 3024 c-38 -20 -36 -28 2 -9 17 9 30 18 30 20 0 7 -1 6 -32 -11z"/>
<path d="M3960 3036 c0 -3 14 -12 30 -21 17 -9 30 -13 30 -11 0 3 -13 12 -30
21 -16 9 -30 13 -30 11z"/>
<path d="M3734 2974 c-18 -14 -18 -14 6 -3 31 14 36 19 24 19 -6 0 -19 -7 -30
-16z"/>
<path d="M1663 2915 c0 -38 2 -53 4 -32 2 20 2 52 0 70 -2 17 -4 1 -4 -38z"/>
<path d="M3404 2850 c0 -74 1 -105 3 -67 2 37 2 97 0 135 -2 37 -3 6 -3 -68z"/>
<path d="M4070 2976 c0 -3 9 -10 20 -16 11 -6 20 -8 20 -6 0 3 -9 10 -20 16
-11 6 -20 8 -20 6z"/>
<path d="M3830 2966 c0 -3 9 -10 20 -16 11 -6 20 -8 20 -6 0 3 -9 10 -20 16
-11 6 -20 8 -20 6z"/>
<path d="M3516 2898 c-3 -17 -6 -54 -6 -82 0 -29 -7 -59 -15 -70 -14 -18 -15
-16 -17 35 l-1 54 -6 -60 c-4 -33 -13 -69 -20 -81 -14 -21 -93 -74 -111 -74
-5 0 -10 33 -12 73 l-3 72 -5 -74 -5 -73 40 -20 c22 -10 32 -13 23 -5 -10 8
-18 17 -18 20 0 4 23 18 51 33 44 22 55 24 80 14 25 -11 28 -18 32 -64 2 -28
4 7 5 78 2 109 4 127 17 122 8 -3 14 0 12 7 -1 7 6 11 15 11 10 -1 16 2 13 6
-3 4 14 17 38 29 25 13 34 21 23 21 -11 0 -43 13 -72 29 l-52 30 -6 -31z"/>
<path d="M4160 2926 c0 -3 9 -10 20 -16 11 -6 20 -8 20 -6 0 3 -9 10 -20 16
-11 6 -20 8 -20 6z"/>
<path d="M4210 2896 c0 -3 9 -10 20 -16 11 -6 20 -8 20 -6 0 3 -9 10 -20 16
-11 6 -20 8 -20 6z"/>
<path d="M2924 2874 c-18 -14 -18 -15 4 -4 12 6 22 13 22 15 0 8 -5 6 -26 -11z"/>
<path d="M4167 2869 c7 -7 15 -10 18 -7 3 3 -2 9 -12 12 -14 6 -15 5 -6 -5z"/>
<path d="M4137 2856 c-4 -10 -1 -13 8 -9 9 3 18 -4 24 -18 6 -15 10 -18 10 -8
1 9 -7 24 -18 33 -16 15 -19 15 -24 2z"/>
<path d="M3695 2837 c29 -24 30 -29 35 -124 l6 -98 4 104 5 103 -40 20 -40 20
30 -25z"/>
<path d="M4195 2850 c-3 -5 -1 -10 4 -10 6 0 11 5 11 10 0 6 -2 10 -4 10 -3 0
-8 -4 -11 -10z"/>
<path d="M1811 2822 c-1 -32 -1 -32 24 -16 30 19 33 29 6 14 -16 -8 -20 -6
-24 13 -3 16 -5 13 -6 -11z"/>
<path d="M4240 2821 c27 -22 21 -28 -10 -11 -11 6 -21 6 -24 1 -6 -9 22 -26
37 -22 4 0 10 -6 13 -14 4 -8 14 -15 23 -15 14 0 14 -2 1 -11 -12 -8 -10 -9 9
-7 36 4 37 27 3 39 -23 8 -30 15 -27 31 3 11 2 18 -2 15 -3 -4 -15 -2 -27 4
-17 8 -16 6 4 -10z"/>
<path d="M4138 2823 c7 -3 16 -2 19 1 4 3 -2 6 -13 5 -11 0 -14 -3 -6 -6z"/>
<path d="M3770 2816 c0 -2 8 -10 18 -17 15 -13 16 -12 3 4 -13 16 -21 21 -21
13z"/>
<path d="M3911 2798 c-14 -23 -14 -23 8 -4 22 20 25 26 13 26 -4 0 -13 -10
-21 -22z"/>
<path d="M4095 2810 c27 -12 43 -12 25 0 -8 5 -22 9 -30 9 -10 0 -8 -3 5 -9z"/>
<path d="M4280 2807 c0 -7 9 -13 20 -13 11 0 20 1 20 3 0 1 -9 7 -20 13 -15 8
-20 8 -20 -3z"/>
<path d="M3700 2801 c0 -7 -4 -9 -10 -6 -5 3 -10 1 -10 -6 0 -7 -3 -10 -6 -6
-4 3 -13 0 -21 -8 -12 -13 -18 -13 -43 0 -16 8 -33 15 -37 15 -4 -1 9 -10 30
-21 l37 -19 0 -156 0 -155 -22 6 c-40 12 -68 35 -68 55 0 11 -6 20 -14 20 -11
0 -12 -19 -9 -97 6 -114 13 -136 13 -40 l0 66 41 -18 c22 -10 46 -24 52 -30 6
-6 13 -11 17 -11 3 0 5 84 5 187 0 136 3 187 12 190 16 6 24 -355 8 -361 -5
-2 -7 -6 -4 -10 3 -3 14 4 25 16 10 12 13 18 7 14 -18 -10 -19 344 -1 362 6 6
9 15 5 19 -4 3 -7 1 -7 -6z m-150 -332 c0 -5 -4 -9 -10 -9 -5 0 -10 7 -10 16
0 8 5 12 10 9 6 -3 10 -10 10 -16z"/>
<path d="M4030 2800 c-8 -5 -12 -11 -10 -14 3 -2 14 2 24 10 22 15 10 19 -14
4z"/>
<path d="M4140 2790 c0 -12 28 -25 36 -17 3 3 -4 10 -15 17 -15 7 -21 7 -21 0z"/>
<path d="M4106 2775 c-3 -9 -11 -13 -16 -10 -6 4 -10 3 -9 -2 5 -27 -3 -43
-21 -43 -11 0 -20 -3 -20 -7 0 -5 -12 -9 -26 -10 -23 -1 -26 2 -22 27 3 20 1
27 -9 23 -7 -3 -13 -13 -13 -22 0 -26 17 -44 33 -38 9 3 17 1 19 -4 2 -6 11
-7 21 -4 9 4 14 12 10 18 -4 6 0 8 10 4 10 -3 17 -2 17 4 0 6 4 8 8 5 4 -2 14
0 22 5 13 8 13 10 0 19 -11 7 -5 8 20 4 30 -6 33 -5 20 7 -8 8 -20 20 -26 27
-9 11 -13 10 -18 -3z"/>
<path d="M4415 2778 c4 -10 3 -18 -1 -18 -5 0 -22 -11 -39 -25 l-30 -25 38 21
c45 25 53 37 38 52 -9 9 -11 8 -6 -5z"/>
<path d="M3778 2632 l3 -128 32 -18 32 -18 -30 26 c-16 14 -25 25 -19 26 5 0
14 -4 20 -8 17 -16 84 -54 84 -48 0 3 -20 17 -45 32 -25 14 -45 30 -45 36 0 6
11 3 25 -6 38 -25 179 -75 238 -84 l52 -8 0 71 0 72 -169 89 c-93 49 -172 90
-175 92 -3 1 -5 -56 -3 -126z"/>
<path d="M4229 2716 c-8 -6 -14 -17 -14 -23 0 -16 20 -12 20 4 0 18 15 29 23
16 5 -8 10 -7 19 2 9 10 7 13 -11 13 -12 0 -29 -6 -37 -12z"/>
<path d="M4165 2680 c-16 -7 -17 -9 -3 -9 9 -1 18 -4 21 -8 2 -5 2 -3 1 4 -2
6 2 14 9 17 7 2 8 4 2 5 -5 0 -19 -4 -30 -9z"/>
<path d="M4065 2660 c3 -5 12 -7 20 -3 21 7 19 13 -6 13 -11 0 -18 -4 -14 -10z"/>
<path d="M4254 2654 c-18 -14 -18 -15 4 -4 12 6 22 13 22 15 0 8 -5 6 -26 -11z"/>
<path d="M4111 2650 c-9 -5 -4 -7 13 -7 29 0 32 2 13 10 -8 3 -20 2 -26 -3z"/>
<path d="M3473 2630 c-11 -16 -10 -18 2 -14 8 4 15 12 15 20 0 19 -3 18 -17
-6z"/>
<path d="M4434 2628 c-4 -7 -3 -8 4 -4 6 4 29 -3 52 -14 22 -11 40 -18 40 -15
0 5 -75 45 -84 45 -3 0 -8 -5 -12 -12z"/>
<path d="M3324 2574 c-18 -14 -18 -15 4 -4 12 6 22 13 22 15 0 8 -5 6 -26 -11z"/>
<path d="M3405 2581 c-3 -5 -1 -12 5 -16 5 -3 10 1 10 9 0 18 -6 21 -15 7z"/>
<path d="M3430 2560 c0 -5 5 -10 11 -10 5 0 7 5 4 10 -3 6 -8 10 -11 10 -2 0
-4 -4 -4 -10z"/>
<path d="M4264 2554 c-18 -14 -18 -15 4 -4 12 6 22 13 22 15 0 8 -5 6 -26 -11z"/>
<path d="M4314 2554 c-18 -14 -18 -15 4 -4 12 6 22 13 22 15 0 8 -5 6 -26 -11z"/>
<path d="M4612 2541 c2 -5 -6 -17 -17 -26 -20 -16 -20 -16 2 -5 27 13 36 27
23 35 -6 4 -9 2 -8 -4z"/>
<path d="M3233 2519 c-35 -22 -46 -37 -15 -20 22 13 58 40 52 41 -3 0 -20 -10
-37 -21z"/>
<path d="M3729 2484 c-3 -33 0 -50 6 -47 6 2 9 20 7 41 -6 59 -9 61 -13 6z"/>
<path d="M4369 2478 c-5 -18 -6 -38 -1 -34 7 8 12 36 6 36 -2 0 -4 -1 -5 -2z"/>
<path d="M4514 2464 c-18 -14 -18 -15 4 -4 12 6 22 13 22 15 0 8 -5 6 -26 -11z"/>
<path d="M4335 2451 c-3 -5 -2 -12 3 -15 5 -3 9 1 9 9 0 17 -3 19 -12 6z"/>
<path d="M590 2421 c0 -6 4 -13 10 -16 6 -3 7 1 4 9 -7 18 -14 21 -14 7z"/>
<path d="M4434 2414 c-18 -14 -18 -15 4 -4 12 6 22 13 22 15 0 8 -5 6 -26 -11z"/>
<path d="M3935 2410 c-3 -6 1 -7 9 -4 18 7 21 14 7 14 -6 0 -13 -4 -16 -10z"/>
<path d="M4266 2401 c-4 -5 3 -7 14 -4 23 6 26 13 6 13 -8 0 -17 -4 -20 -9z"/>
<path d="M625 2393 c6 -6 44 -32 85 -58 41 -26 85 -54 98 -63 12 -8 22 -12 22
-9 0 3 -42 32 -92 64 -105 68 -128 81 -113 66z"/>
<path d="M4224 2374 c-18 -14 -18 -15 4 -4 12 6 22 13 22 15 0 8 -5 6 -26 -11z"/>
<path d="M4354 2364 c-18 -14 -18 -15 4 -4 12 6 22 13 22 15 0 8 -5 6 -26 -11z"/>
<path d="M985 2355 c11 -9 29 -21 40 -26 l20 -10 -20 16 c-11 9 -29 21 -40 26
l-20 10 20 -16z"/>
<path d="M4174 2344 c-18 -14 -18 -15 4 -4 12 6 22 13 22 15 0 8 -5 6 -26 -11z"/>
<path d="M3798 2343 c6 -2 10 -8 8 -12 -3 -4 1 -8 9 -8 11 0 12 4 4 14 -6 7
-17 13 -23 12 -7 0 -6 -2 2 -6z"/>
<path d="M3909 2329 l-24 -20 28 17 c15 9 27 18 27 20 0 8 -8 4 -31 -17z"/>
<path d="M1050 2315 c0 -1 37 -24 83 -50 45 -26 92 -55 105 -63 12 -8 22 -12
22 -9 0 3 -36 27 -79 53 -44 27 -78 51 -75 55 2 4 -10 9 -26 11 -17 3 -30 4
-30 3z"/>
<path d="M4084 2294 c-18 -14 -18 -14 6 -3 31 14 36 19 24 19 -6 0 -19 -7 -30
-16z"/>
<path d="M919 2282 c14 -11 38 -27 55 -37 l31 -17 -24 20 c-14 11 -38 27 -55
37 l-31 17 24 -20z"/>
<path d="M3530 2118 c-3 -97 -2 -174 3 -171 4 2 7 44 7 92 l0 88 52 29 c29 16
61 32 72 37 10 4 16 10 13 13 -3 3 -33 -10 -67 -30 -33 -20 -63 -36 -65 -36
-2 0 -6 35 -7 78 -2 43 -6 0 -8 -100z"/>
<path d="M3804 2274 c-18 -14 -18 -15 4 -4 12 6 22 13 22 15 0 8 -5 6 -26 -11z"/>
<path d="M4203 2269 c-35 -22 -46 -37 -15 -20 22 13 58 40 52 41 -3 0 -20 -10
-37 -21z"/>
<path d="M3698 2273 c-10 -2 -18 -9 -18 -14 0 -14 16 -11 30 6 7 8 11 14 9 14
-2 -1 -12 -3 -21 -6z"/>
<path d="M4034 2264 c-18 -14 -18 -15 4 -4 12 6 22 13 22 15 0 8 -5 6 -26 -11z"/>
<path d="M855 2245 c11 -9 29 -21 40 -26 l20 -10 -20 16 c-11 9 -29 21 -40 26
l-20 10 20 -16z"/>
<path d="M1210 2256 c0 -2 14 -14 30 -26 17 -12 30 -19 30 -16 0 2 -13 14 -30
26 -16 12 -30 19 -30 16z"/>
<path d="M1570 2241 c14 -11 30 -21 35 -21 11 0 -7 14 -40 31 -13 7 -12 3 5
-10z"/>
<path d="M1470 2246 c0 -3 9 -10 20 -16 11 -6 20 -8 20 -6 0 3 -9 10 -20 16
-11 6 -20 8 -20 6z"/>
<path d="M2214 2224 c-18 -14 -18 -15 4 -4 12 6 22 13 22 15 0 8 -5 6 -26 -11z"/>
<path d="M4139 2223 c-13 -16 -12 -17 4 -4 16 13 21 21 13 21 -2 0 -10 -8 -17
-17z"/>
<path d="M1010 2226 c0 -3 9 -10 20 -16 11 -6 20 -8 20 -6 0 3 -9 10 -20 16
-11 6 -20 8 -20 6z"/>
<path d="M1645 2219 c-4 -5 -11 -6 -17 -3 -7 5 -8 2 -3 -5 5 -9 11 -9 17 -3 7
7 31 -3 71 -28 57 -36 62 -38 84 -23 12 8 23 18 23 20 0 3 -11 -2 -23 -10 -23
-15 -27 -13 -85 23 -34 22 -64 35 -67 29z"/>
<path d="M3954 2214 c-18 -14 -18 -15 4 -4 12 6 22 13 22 15 0 8 -5 6 -26 -11z"/>
<path d="M1327 2209 c-10 -6 -25 -8 -33 -5 -9 3 -12 1 -9 -4 9 -14 28 -12 51
5 22 17 17 19 -9 4z"/>
<path d="M3570 2210 c-9 -6 -10 -10 -3 -10 6 0 15 5 18 10 8 12 4 12 -15 0z"/>
<path d="M2374 2194 c-18 -14 -18 -15 4 -4 12 6 22 13 22 15 0 8 -5 6 -26 -11z"/>
<path d="M1062 2191 c-7 -4 -5 -11 9 -20 16 -9 19 -10 13 0 -5 9 -2 10 9 6 23
-9 22 0 -1 12 -10 5 -23 6 -30 2z"/>
<path d="M1600 2184 c-8 -8 -9 -14 -4 -12 5 1 20 -3 34 -10 24 -13 24 -12 5 3
-11 9 -19 21 -17 26 3 13 -4 11 -18 -7z"/>
<path d="M2135 2185 c-22 -10 -32 -10 -37 -2 -6 9 -8 9 -8 1 0 -7 22 -26 49
-44 28 -17 52 -37 55 -43 3 -9 5 -9 5 0 1 7 -17 25 -40 40 l-41 27 26 13 c14
8 26 16 26 18 0 6 2 7 -35 -10z"/>
<path d="M1270 2184 c0 -2 9 -8 20 -14 11 -6 20 -7 20 -2 0 6 -9 12 -20 15
-11 3 -20 3 -20 1z"/>
<path d="M2324 2164 c-18 -14 -18 -15 4 -4 12 6 22 13 22 15 0 8 -5 6 -26 -11z"/>
<path d="M3874 2164 c-18 -14 -18 -15 4 -4 12 6 22 13 22 15 0 8 -5 6 -26 -11z"/>
<path d="M980 2166 c0 -3 9 -10 20 -16 11 -6 20 -8 20 -6 0 3 -9 10 -20 16
-11 6 -20 8 -20 6z"/>
<path d="M1124 2155 c1 -8 6 -18 11 -22 4 -4 5 -2 1 5 -9 15 -1 15 25 2 10 -6
19 -8 19 -6 0 3 -13 12 -29 21 -25 12 -29 13 -27 0z"/>
<path d="M1321 2161 c3 -7 25 -21 49 -32 50 -23 45 -14 -14 21 -21 13 -37 18
-35 11z"/>
<path d="M1554 2154 c-18 -14 -18 -15 4 -4 12 6 22 13 22 15 0 8 -5 6 -26 -11z"/>
<path d="M2020 2139 c-22 -18 -22 -19 -3 -10 12 6 25 16 28 21 9 15 3 12 -25
-11z"/>
<path d="M2274 2134 c-18 -14 -18 -15 4 -4 12 6 22 13 22 15 0 8 -5 6 -26 -11z"/>
<path d="M3827 2136 c-17 -13 -17 -14 0 -20 10 -4 14 -4 10 0 -4 4 -2 13 4 21
14 17 9 16 -14 -1z"/>
<path d="M1030 2137 c0 -4 20 -18 103 -71 15 -10 27 -16 27 -13 0 4 -20 18
-102 71 -16 10 -28 16 -28 13z"/>
<path d="M1504 2124 c-18 -14 -18 -15 4 -4 12 6 22 13 22 15 0 8 -5 6 -26 -11z"/>
<path d="M1790 2136 c0 -3 9 -10 20 -16 11 -6 20 -8 20 -6 0 3 -9 10 -20 16
-11 6 -20 8 -20 6z"/>
<path d="M1194 2114 c4 -23 35 -39 49 -24 9 8 7 9 -7 4 -13 -5 -17 -4 -12 4 5
8 1 10 -10 5 -11 -4 -15 -3 -10 5 3 6 2 13 -3 16 -5 4 -8 -1 -7 -10z"/>
<path d="M1705 2115 c11 -9 29 -21 40 -26 l20 -10 -20 16 c-11 9 -29 21 -40
26 l-20 10 20 -16z"/>
<path d="M1952 2094 c-29 -23 -37 -25 -60 -15 -24 10 -25 10 -8 -3 11 -9 15
-20 10 -27 -4 -7 14 3 40 21 42 31 64 50 54 50 -2 0 -18 -12 -36 -26z"/>
<path d="M2225 2106 c-18 -13 -18 -14 6 -26 21 -12 22 -11 12 2 -10 11 -10 17
-1 26 16 16 6 15 -17 -2z"/>
<path d="M1420 2103 c0 -1 9 -7 19 -12 13 -8 22 -7 29 2 8 9 3 12 -19 12 -16
0 -29 -1 -29 -2z"/>
<path d="M2474 2084 c-18 -14 -18 -15 4 -4 12 6 22 13 22 15 0 8 -5 6 -26 -11z"/>
<path d="M2565 2075 l-30 -25 38 21 c20 11 37 23 37 25 0 10 -17 2 -45 -21z"/>
<path d="M1470 2076 c0 -3 9 -10 20 -16 11 -6 20 -8 20 -6 0 3 -9 10 -20 16
-11 6 -20 8 -20 6z"/>
<path d="M1785 2060 c10 -11 20 -20 23 -20 3 0 -3 9 -13 20 -10 11 -20 20 -23
20 -3 0 3 -9 13 -20z"/>
<path d="M3714 2064 c-18 -14 -18 -15 4 -4 12 6 22 13 22 15 0 8 -5 6 -26 -11z"/>
<path d="M2260 2066 c0 -3 9 -10 20 -16 11 -6 20 -8 20 -6 0 3 -9 10 -20 16
-11 6 -20 8 -20 6z"/>
<path d="M2403 2042 c-40 -26 -41 -29 -22 -40 16 -10 17 -16 8 -33 -10 -19 -9
-20 11 -9 l22 12 -22 23 -21 23 35 22 c20 12 36 24 36 26 0 7 -3 5 -47 -24z"/>
<path d="M3669 2057 c6 -8 7 -18 3 -22 -4 -5 -1 -5 6 -1 10 6 10 11 1 22 -6 8
-14 14 -16 14 -3 0 0 -6 6 -13z"/>
<path d="M4134 2054 c-18 -14 -18 -15 4 -4 12 6 22 13 22 15 0 8 -5 6 -26 -11z"/>
<path d="M3827 2053 c-12 -12 -7 -22 11 -21 9 0 36 -4 60 -10 23 -5 42 -7 42
-3 0 10 -52 31 -61 25 -5 -3 -9 0 -9 5 0 12 -33 15 -43 4z"/>
<path d="M1189 2032 c14 -11 38 -27 55 -37 l31 -17 -24 20 c-14 11 -38 27 -55
37 l-31 17 24 -20z"/>
<path d="M1520 2046 c0 -3 9 -10 20 -16 11 -6 20 -8 20 -6 0 3 -9 10 -20 16
-11 6 -20 8 -20 6z"/>
<path d="M1828 2030 c10 -12 9 -18 -10 -33 l-23 -19 28 16 27 16 0 -39 c0 -33
-5 -43 -30 -61 l-31 -22 -37 24 c-46 30 -82 50 -82 45 0 -3 24 -19 54 -37 52
-32 53 -33 40 -59 -9 -16 -12 -38 -8 -56 5 -24 4 -28 -7 -19 -24 18 -109 65
-109 60 0 -12 121 -76 131 -70 8 4 9 3 5 -4 -7 -12 41 -41 64 -39 8 1 47 -9
85 -22 41 -13 103 -24 151 -27 73 -3 87 -7 133 -38 79 -54 173 -84 312 -100
l46 -5 -8 42 c-4 23 -8 79 -9 123 l0 82 65 42 c36 23 65 44 65 47 0 5 -12 -2
-80 -48 l-55 -37 -115 64 c-63 35 -110 64 -104 64 5 0 19 6 30 14 17 13 15 13
-20 3 -27 -8 -58 -33 -103 -82 -55 -59 -111 -142 -104 -153 2 -2 0 -7 -4 -10
-4 -4 -5 35 -3 85 2 62 -1 93 -8 95 -6 2 -63 35 -127 73 -78 47 -115 75 -112
84 5 11 3 12 -10 1 -12 -10 -18 -10 -32 1 -16 11 -16 11 -5 -1z"/>
<path d="M3755 2005 c-27 -20 -54 -44 -59 -53 -8 -15 -8 -15 7 -3 9 7 17 10
17 5 0 -5 7 0 16 11 8 11 18 20 22 20 4 0 6 4 4 9 -2 5 4 6 13 2 9 -3 13 -2
10 4 -3 6 -2 10 3 10 6 0 12 7 16 15 7 20 8 20 -49 -20z"/>
<path d="M2463 2009 c-35 -22 -46 -37 -15 -20 22 13 58 40 52 41 -3 0 -20 -10
-37 -21z"/>
<path d="M1570 2016 c0 -3 9 -10 20 -16 11 -6 20 -8 20 -6 0 3 -9 10 -20 16
-11 6 -20 8 -20 6z"/>
<path d="M3957 2005 c4 -11 13 -27 21 -35 12 -12 12 -15 1 -19 -16 -5 -43 -31
-45 -43 -1 -4 -2 -11 -3 -15 -1 -5 -6 -1 -11 7 -5 8 -10 11 -10 5 0 -5 4 -16
9 -24 7 -11 11 -9 20 8 7 12 16 19 21 16 5 -3 17 6 27 21 18 28 26 67 11 58
-4 -3 -8 0 -8 7 0 7 -3 9 -7 6 -3 -4 -12 1 -20 11 -12 16 -13 15 -6 -3z"/>
<path d="M3823 1990 c-3 -11 -9 -18 -13 -15 -10 6 -40 -4 -40 -14 0 -3 4 -12
9 -19 6 -11 14 -8 34 11 13 14 22 29 18 33 -3 4 0 4 7 0 18 -10 38 4 21 15
-21 13 -30 11 -36 -11z"/>
<path d="M3584 1984 c-18 -14 -18 -15 4 -4 12 6 22 13 22 15 0 8 -5 6 -26 -11z"/>
<path d="M1620 1986 c0 -3 9 -10 20 -16 11 -6 20 -8 20 -6 0 3 -9 10 -20 16
-11 6 -20 8 -20 6z"/>
<path d="M4129 1978 c-5 -21 -2 -95 4 -91 7 4 7 93 0 93 -2 0 -3 -1 -4 -2z"/>
<path d="M1744 1954 c-18 -14 -18 -15 4 -4 12 6 22 13 22 15 0 8 -5 6 -26 -11z"/>
<path d="M2264 1954 c-18 -14 -18 -15 4 -4 12 6 22 13 22 15 0 8 -5 6 -26 -11z"/>
<path d="M2783 1949 c-35 -22 -46 -37 -15 -20 22 13 58 40 52 41 -3 0 -20 -10
-37 -21z"/>
<path d="M3883 1947 l-22 -23 30 4 c16 2 29 10 29 18 0 8 5 14 11 14 5 0 7 -5
3 -12 -4 -7 -3 -8 5 -4 6 4 9 12 6 17 -10 16 -39 9 -62 -14z"/>
<path d="M1325 1945 c11 -9 29 -21 40 -26 l20 -10 -20 16 c-11 9 -29 21 -40
26 l-20 10 20 -16z"/>
<path d="M1450 1956 c0 -3 9 -10 20 -16 11 -6 20 -8 20 -6 0 3 -9 10 -20 16
-11 6 -20 8 -20 6z"/>
<path d="M3473 1919 c-35 -22 -46 -37 -15 -20 22 13 58 40 52 41 -3 0 -20 -10
-37 -21z"/>
<path d="M3590 1907 c0 -23 -6 -39 -16 -45 -30 -17 2 -48 93 -93 49 -23 100
-48 115 -56 53 -26 63 -19 60 42 -2 30 -8 55 -12 55 -4 0 -54 27 -111 61 -134
80 -129 78 -129 36z"/>
<path d="M3720 1929 c0 -5 -4 -7 -10 -4 -5 3 -10 4 -10 1 0 -3 9 -10 19 -15
16 -9 18 -8 14 9 -6 21 -13 27 -13 9z"/>
<path d="M1500 1927 c0 -7 72 -48 76 -44 2 2 -14 14 -36 26 -22 12 -40 20 -40
18z"/>
<path d="M2184 1904 c-18 -14 -18 -15 4 -4 12 6 22 13 22 15 0 8 -5 6 -26 -11z"/>
<path d="M2710 1899 c-22 -18 -22 -19 -3 -10 12 6 25 16 28 21 9 15 3 12 -25
-11z"/>
<path d="M1405 1895 c11 -9 29 -21 40 -26 l20 -10 -20 16 c-11 9 -29 21 -40
26 l-20 10 20 -16z"/>
<path d="M3855 1880 c3 -5 8 -10 11 -10 2 0 4 5 4 10 0 6 -5 10 -11 10 -5 0
-7 -4 -4 -10z"/>
<path d="M1590 1876 c0 -3 9 -10 20 -16 11 -6 20 -8 20 -6 0 3 -9 10 -20 16
-11 6 -20 8 -20 6z"/>
<path d="M3789 1871 c12 -8 51 -4 51 5 0 2 -15 4 -32 4 -23 0 -29 -3 -19 -9z"/>
<path d="M3868 1864 c-34 -18 -35 -22 -4 -19 30 4 46 13 46 26 0 12 -10 11
-42 -7z"/>
<path d="M3363 1849 c-35 -22 -46 -37 -15 -20 22 13 58 40 52 41 -3 0 -20 -10
-37 -21z"/>
<path d="M1484 1846 c11 -9 24 -16 30 -16 12 0 7 5 -24 19 -24 11 -24 11 -6
-3z"/>
<path d="M1575 1815 c22 -18 86 -53 70 -38 -5 6 -28 20 -50 32 -22 13 -31 15
-20 6z"/>
<path d="M3436 1802 c-2 -4 4 -8 14 -8 10 0 16 4 14 8 -3 4 -9 8 -14 8 -5 0
-11 -4 -14 -8z"/>
<path d="M3394 1774 c-18 -14 -18 -15 4 -4 12 6 22 13 22 15 0 8 -5 6 -26 -11z"/>
<path d="M1570 1776 c0 -3 9 -10 20 -16 11 -6 20 -8 20 -6 0 3 -9 10 -20 16
-11 6 -20 8 -20 6z"/>
<path d="M3934 1764 c-18 -14 -18 -15 4 -4 12 6 22 13 22 15 0 8 -5 6 -26 -11z"/>
<path d="M1660 1766 c0 -3 9 -10 20 -16 11 -6 20 -8 20 -6 0 3 -9 10 -20 16
-11 6 -20 8 -20 6z"/>
<path d="M1620 1746 c0 -3 9 -10 20 -16 11 -6 20 -8 20 -6 0 3 -9 10 -20 16
-11 6 -20 8 -20 6z"/>
<path d="M1710 1736 c0 -3 9 -10 20 -16 11 -6 20 -8 20 -6 0 3 -9 10 -20 16
-11 6 -20 8 -20 6z"/>
<path d="M2825 1714 c-51 -34 -69 -52 -29 -29 35 20 82 54 74 55 -3 0 -23 -12
-45 -26z"/>
<path d="M1845 1723 c14 -14 165 -96 165 -89 0 2 -35 24 -77 48 -86 48 -103
56 -88 41z"/>
<path d="M1670 1716 c0 -3 9 -10 20 -16 11 -6 20 -8 20 -6 0 3 -9 10 -20 16
-11 6 -20 8 -20 6z"/>
<path d="M3284 1704 c-18 -14 -18 -15 4 -4 12 6 22 13 22 15 0 8 -5 6 -26 -11z"/>
<path d="M1775 1695 c11 -9 29 -21 40 -26 l20 -10 -20 16 c-11 9 -29 21 -40
26 l-20 10 20 -16z"/>
<path d="M3630 1696 c0 -3 9 -10 20 -16 11 -6 20 -8 20 -6 0 3 -9 10 -20 16
-11 6 -20 8 -20 6z"/>
<path d="M1765 1655 c11 -9 29 -21 40 -26 l20 -10 -20 16 c-11 9 -29 21 -40
26 l-20 10 20 -16z"/>
<path d="M2715 1644 c-51 -34 -69 -52 -29 -29 35 20 82 54 74 55 -3 0 -23 -12
-45 -26z"/>
<path d="M1855 1645 c11 -9 29 -21 40 -26 l20 -10 -20 16 c-11 9 -29 21 -40
26 l-20 10 20 -16z"/>
<path d="M3133 1639 c-35 -22 -46 -37 -15 -20 22 13 58 40 52 41 -3 0 -20 -10
-37 -21z"/>
<path d="M3187 1643 c-4 -3 -7 -19 -7 -34 0 -19 -6 -29 -22 -33 -13 -3 -39
-20 -58 -36 -19 -17 -28 -28 -19 -25 9 3 22 -1 29 -10 11 -13 10 -15 -1 -11
-8 3 -27 -6 -44 -21 l-30 -25 36 20 35 21 35 -23 c62 -42 195 -113 245 -130
63 -21 118 -21 135 2 13 15 12 16 -3 3 -17 -12 -18 -9 -18 40 l0 54 60 39 c33
21 60 40 60 43 0 5 -13 -2 -67 -39 -23 -15 -44 -28 -48 -28 -17 0 -314 183
-309 191 6 11 0 12 -9 2z"/>
<path d="M2020 1627 c0 -3 33 -24 73 -47 91 -54 87 -52 87 -47 0 3 -33 24 -72
47 -92 54 -88 52 -88 47z"/>
<path d="M3766 1613 c-6 -14 -5 -15 5 -6 7 7 10 15 7 18 -3 3 -9 -2 -12 -12z"/>
<path d="M1830 1616 c0 -3 9 -10 20 -16 11 -6 20 -8 20 -6 0 3 -9 10 -20 16
-11 6 -20 8 -20 6z"/>
<path d="M1940 1596 c0 -3 9 -10 20 -16 11 -6 20 -8 20 -6 0 3 -9 10 -20 16
-11 6 -20 8 -20 6z"/>
<path d="M1880 1586 c0 -3 9 -10 20 -16 11 -6 20 -8 20 -6 0 3 -9 10 -20 16
-11 6 -20 8 -20 6z"/>
<path d="M2594 1564 c-18 -14 -18 -15 4 -4 12 6 22 13 22 15 0 8 -5 6 -26 -11z"/>
<path d="M1990 1566 c0 -3 9 -10 20 -16 11 -6 20 -8 20 -6 0 3 -9 10 -20 16
-11 6 -20 8 -20 6z"/>
<path d="M3004 1554 c-18 -14 -18 -15 4 -4 12 6 22 13 22 15 0 8 -5 6 -26 -11z"/>
<path d="M3663 1549 c-35 -22 -46 -37 -15 -20 22 13 58 40 52 41 -3 0 -20 -10
-37 -21z"/>
<path d="M1930 1556 c0 -3 9 -10 20 -16 11 -6 20 -8 20 -6 0 3 -9 10 -20 16
-11 6 -20 8 -20 6z"/>
<path d="M2040 1536 c0 -3 9 -10 20 -16 11 -6 20 -8 20 -6 0 3 -9 10 -20 16
-11 6 -20 8 -20 6z"/>
<path d="M1980 1526 c0 -3 9 -10 20 -16 11 -6 20 -8 20 -6 0 3 -9 10 -20 16
-11 6 -20 8 -20 6z"/>
<path d="M2190 1526 c0 -3 9 -10 20 -16 11 -6 20 -8 20 -6 0 3 -9 10 -20 16
-11 6 -20 8 -20 6z"/>
<path d="M2924 1504 c-18 -14 -18 -15 4 -4 12 6 22 13 22 15 0 8 -5 6 -26 -11z"/>
<path d="M2090 1506 c0 -3 9 -10 20 -16 11 -6 20 -8 20 -6 0 3 -9 10 -20 16
-11 6 -20 8 -20 6z"/>
<path d="M3017 1485 c-20 -14 -37 -28 -37 -31 0 -2 18 8 40 22 35 23 47 34 37
34 -1 0 -19 -11 -40 -25z"/>
<path d="M2030 1496 c0 -3 9 -10 20 -16 11 -6 20 -8 20 -6 0 3 -9 10 -20 16
-11 6 -20 8 -20 6z"/>
<path d="M2240 1496 c0 -3 9 -10 20 -16 11 -6 20 -8 20 -6 0 3 -9 10 -20 16
-11 6 -20 8 -20 6z"/>
<path d="M2100 1451 c14 -11 30 -21 35 -21 11 0 -7 14 -40 31 -13 7 -12 3 5
-10z"/>
<path d="M2290 1466 c0 -3 9 -10 20 -16 11 -6 20 -8 20 -6 0 3 -9 10 -20 16
-11 6 -20 8 -20 6z"/>
<path d="M2833 1449 c-35 -22 -46 -37 -15 -20 22 13 58 40 52 41 -3 0 -20 -10
-37 -21z"/>
<path d="M2961 1405 c-35 -24 -69 -49 -75 -56 -6 -6 24 12 67 40 42 28 77 54
77 56 0 7 0 7 -69 -40z"/>
<path d="M2355 1425 c11 -9 29 -21 40 -26 l20 -10 -20 16 c-11 9 -29 21 -40
26 l-20 10 20 -16z"/>
<path d="M2822 1355 c-61 -41 -112 -78 -112 -80 0 -5 206 129 225 146 24 23
-9 3 -113 -66z"/>
<path d="M2170 1416 c0 -3 9 -10 20 -16 11 -6 20 -8 20 -6 0 3 -9 10 -20 16
-11 6 -20 8 -20 6z"/>
<path d="M2235 1375 c11 -9 29 -21 40 -26 l20 -10 -20 16 c-11 9 -29 21 -40
26 l-20 10 20 -16z"/>
<path d="M2420 1386 c0 -3 9 -10 20 -16 11 -6 20 -8 20 -6 0 3 -9 10 -20 16
-11 6 -20 8 -20 6z"/>
<path d="M2310 1376 c0 -3 9 -10 20 -16 11 -6 20 -8 20 -6 0 3 -9 10 -20 16
-11 6 -20 8 -20 6z"/>
<path d="M2704 1364 c-18 -14 -18 -15 4 -4 12 6 22 13 22 15 0 8 -5 6 -26 -11z"/>
<path d="M2485 1345 c22 -18 86 -53 70 -38 -5 6 -28 20 -50 32 -22 13 -31 15
-20 6z"/>
<path d="M2319 1322 c14 -11 38 -27 55 -37 l31 -17 -24 20 c-14 11 -38 27 -55
37 l-31 17 24 -20z"/>
<path d="M2797 1295 c-37 -25 -67 -48 -67 -50 0 -3 32 16 70 41 61 41 77 54
67 54 -1 0 -33 -20 -70 -45z"/>
<path d="M2390 1326 c0 -3 9 -10 20 -16 11 -6 20 -8 20 -6 0 3 -9 10 -20 16
-11 6 -20 8 -20 6z"/>
<path d="M2600 1300 c-9 -6 -10 -10 -3 -10 6 0 15 5 18 10 8 12 4 12 -15 0z"/>
<path d="M2455 1285 c11 -9 29 -21 40 -26 l20 -10 -20 16 c-11 9 -29 21 -40
26 l-20 10 20 -16z"/>
<path d="M2410 1267 c0 -4 20 -18 103 -71 15 -10 27 -16 27 -13 0 4 -20 18
-102 71 -16 10 -28 16 -28 13z"/>
<path d="M2520 1247 c0 -2 18 -16 40 -30 29 -20 41 -23 46 -14 4 6 4 9 -1 5
-4 -4 -20 1 -34 11 -36 25 -51 33 -51 28z"/>
<path d="M2662 1205 c-28 -20 -52 -38 -52 -40 0 -3 25 11 55 31 48 32 62 44
52 44 -1 0 -26 -16 -55 -35z"/>
<path d="M2564 1166 c11 -9 24 -16 30 -16 12 0 7 5 -24 19 -24 11 -24 11 -6
-3z"/>
</g>
</svg>